<?xml version="1.0" standalone="no"?>
<!DOCTYPE svg PUBLIC "-//W3C//DTD SVG 20010904//EN"
 "http://www.w3.org/TR/2001/REC-SVG-20010904/DTD/svg10.dtd">
<svg version="1.0" xmlns="http://www.w3.org/2000/svg"
 width="100.000000pt" height="100.000000pt" viewBox="0 0 100.000000 100.000000"
 preserveAspectRatio="xMidYMid meet">
<metadata>
Created by potrace 1.14, written by Peter Selinger 2001-2017
</metadata>
<g transform="translate(0.000000,100.000000) scale(0.100000,-0.100000)"
fill="#000000" stroke="none">
<path d="M0 500 l0 -500 500 0 500 0 0 500 0 500 -500 0 -500 0 0 -500z m807
405 c50 -21 72 -42 94 -90 17 -36 19 -69 19 -315 0 -246 -2 -279 -19 -315 -22
-48 -44 -69 -94 -90 -30 -12 -86 -15 -309 -15 -243 0 -277 2 -313 19 -48 22
-69 44 -90 94 -22 54 -22 560 0 614 21 50 42 72 90 94 36 17 70 19 313 19 223
0 279 -3 309 -15z"/>
<path d="M547 793 c-4 -3 -7 -17 -7 -30 0 -20 -5 -23 -35 -23 -48 0 -111 -34
-130 -70 -8 -16 -15 -49 -15 -74 0 -60 27 -90 121 -135 68 -33 74 -39 74 -66
0 -43 -40 -61 -103 -45 -26 6 -57 21 -69 32 l-21 20 -31 -23 c-17 -12 -31 -26
-31 -30 0 -13 59 -57 93 -70 30 -10 32 -15 29 -45 l-4 -34 46 0 c42 0 47 2 60
34 10 24 22 35 43 39 59 12 114 101 99 161 -10 39 -63 93 -104 107 -86 27
-103 40 -100 73 3 29 6 31 45 34 27 2 60 -5 93 -19 l51 -22 24 23 c14 13 25
27 25 31 0 4 -16 17 -35 29 -23 14 -34 28 -31 39 20 73 21 71 -32 71 -27 0
-52 -3 -55 -7z"/>
</g>
</svg>
